<?xml version="1.0" encoding="UTF-8"?>
<svg id="Layer_2" data-name="Layer 2" xmlns="http://www.w3.org/2000/svg" viewBox="0 0 520.73 231.56">
  <defs>
    <style>
      .cls-1 {
        fill: #e4caa5;
      }

      .cls-2 {
        fill: #fff;
      }
    </style>
  </defs>
  <g id="Layer_1-2" data-name="Layer 1">
    <g>
      <g>
        <path class="cls-1" d="M51.86,59.12L74.42,4.53c1.13-2.74,3.81-4.53,6.78-4.53h0c2.96,0,5.62,1.77,6.76,4.5l87.56,208.92c2.22,5.29,6.69,9.31,12.19,10.96l7.63,2.28v4.9h-39.13c-24.46,0-37.51-13.05-43.7-27.72L51.86,59.12Z"/>
        <path class="cls-1" d="M22.28,131.77l34.21,81.64c2.21,5.29,6.69,9.31,12.19,10.96l7.63,2.28v4.9h-39.14c-.25,0-.49,0-.73,0-25.93-.28-43.38-26.7-33.76-50.78l19.6-49Z"/>
      </g>
      <g>
        <g>
          <path class="cls-2" d="M231.24,169.66c-.45,1.57-.58,2.86-.39,3.87.19,1,.46,1.81.84,2.41.45.75,1,1.27,1.68,1.57h-13.33c.45-.3.97-.79,1.57-1.46.52-.59,1.1-1.4,1.74-2.41.63-1.01,1.29-2.3,1.96-3.86l24.86-68.87h17.69l24.64,68.76c.45,1.05,1.12,2.36,2.02,3.92.89,1.57,2.13,2.88,3.7,3.92h-32.59c.89-.82,1.62-1.96,2.18-3.41.56-1.46.58-2.93.06-4.43l-6.16-17.02h-24.52l-5.94,17.02ZM249.28,117.81l-10.53,30.35h21.39l-10.86-30.35Z"/>
          <path class="cls-2" d="M329.79,173.02c4.78,0,9.13-.95,13.05-2.86,3.92-1.9,7.33-4.2,10.25-6.89,2.91-2.69,5.3-5.49,7.17-8.4,1.87-2.91,3.21-5.38,4.03-7.39-.38,5.45-.69,10.08-.95,13.88-.26,3.81-.46,6.91-.62,9.3-.22,2.84-.38,5.11-.45,6.83h-59.58c1.49-1.64,2.24-3.51,2.24-5.6v-63.16c0-2.91-.75-5.56-2.24-7.95h29.22c-1.49,2.54-2.24,5.19-2.24,7.95v44.85c0,4.74.02,8.42.05,11.03.04,2.62.06,4.53.06,5.77v2.63Z"/>
          <path class="cls-2" d="M428.23,177.5h-59.58c1.49-1.64,2.24-3.51,2.24-5.6v-63.38c0-2.76-.75-5.34-2.24-7.73h59.58l2.02,26.65c-.67-1.78-1.62-3.94-2.86-6.46-1.23-2.53-3.1-4.96-5.6-7.3-2.5-2.34-5.81-4.33-9.91-5.96-4.11-1.63-9.38-2.45-15.79-2.45-.08.22-.13.83-.17,1.84-.04,1-.07,2.7-.11,5.08-.04,2.38-.07,5.63-.11,9.77-.04,4.13-.06,9.47-.06,16.01,2.91-.15,5.41-.56,7.5-1.23,2.09-.67,3.88-1.53,5.38-2.58,1.49-1.05,2.76-2.28,3.8-3.7,1.04-1.42,1.9-2.98,2.57-4.7v29.01c-1.94-4.71-4.48-7.93-7.61-9.69s-7.02-2.63-11.65-2.63v17.3c0,4.07.02,7.07.06,9.01.04,1.94.05,3.12.05,3.53v.73c3.88,0,7.38-.45,10.47-1.34,3.1-.9,5.82-2.07,8.18-3.53,2.35-1.46,4.4-3.11,6.16-4.98,1.75-1.87,3.26-3.75,4.53-5.66s2.31-3.73,3.14-5.49c.82-1.75,1.49-3.3,2.02-4.65l-2.02,30.01v.11Z"/>
          <path class="cls-2" d="M518.6,171.9c0,2.09.71,3.96,2.13,5.6h-29.12c1.49-1.64,2.24-3.51,2.24-5.6v-50.28l-20.72,55.88h-8.85l-21.05-56.1v50.51c0,2.09.71,3.96,2.13,5.6h-10.87c1.49-1.64,2.24-3.51,2.24-5.6l-.11-63.27c0-2.99-.71-5.64-2.13-7.95h27.33l16.46,44.12c2.83-8.21,5.41-15.53,7.72-21.95.97-2.76,1.92-5.45,2.86-8.06.94-2.61,1.77-4.97,2.52-7.06.75-2.09,1.34-3.77,1.79-5.04.45-1.27.67-1.94.67-2.02h26.88c-1.42,2.61-2.13,5.26-2.13,7.95v63.27Z"/>
        </g>
        <g>
          <path class="cls-2" d="M246.98,221.83h-23.27v-21.99l1.67-2.02v-.06h-3.43v-3.22h17.12c5.28,0,7.92,2.53,7.92,7.6v19.69ZM243.79,218.57v-17.1c0-2.48-1.29-3.71-3.85-3.71h-13.03v20.81h16.88Z"/>
          <path class="cls-2" d="M275.46,210.51c-1.28,5.3-3.98,8.75-8.12,10.36l-3.79,1.47-.3-.11-1.4-2.59,4.27-1.7c3.21-1.27,5.27-3.87,6.19-7.8l2.99-12.38h-18.79c-.32,0-.48-.17-.48-.52v-10.45h3.38v7.75h19.21c.52,0,.72.23.6.69l-3.73,15.29Z"/>
          <path class="cls-2" d="M313.8,222.6h-.3c-3.41-3.07-9.15-9.63-17.24-19.69l-.39.29c-.4.73-.82,1.7-1.27,2.91-.45,1.21-.9,2.66-1.36,4.35-.4,1.54-.74,2.95-1.02,4.23-.28,1.29-.49,2.47-.63,3.54l4.03.61-1.1,3h-6.6l-.18-.23c.08-1.13.25-2.43.51-3.9.26-1.47.62-3.13,1.07-4.99.5-2.05,1-3.84,1.51-5.37.51-1.52,1.03-2.8,1.57-3.84l2.93-1.7-.18-.26c-.04-.07-.82-1.17-2.33-3.28-.22-.29-.59-.43-1.11-.43h-3.11v-3.28h5.14c.32,0,.69.27,1.11.8,1.57,2.21,3.25,4.45,5.03,6.73,1.78,2.29,3.69,4.63,5.72,7.03,1.04-1.84,2.67-6.7,4.9-14.57h3.29c.3,0,.43.13.39.4l-2.21,7.2c-.52,1.61-1.01,2.96-1.46,4.03-.46,1.07-.89,1.91-1.28,2.5l-2.75,1.47c1.67,2,3.28,3.79,4.81,5.39,1.53,1.61,3.03,3.03,4.48,4.28l-1.97,2.79Z"/>
          <path class="cls-2" d="M345.39,208.38c-.76,3.26-1.9,5.86-3.44,7.77-1.67,2.02-3.99,3.57-6.96,4.66l-13.41,4.95,1.35-3.83,8.87-3.25-4.15-20.55c-.08-.25-.25-.38-.51-.38h-4.39v-3.22h6.12c.82,0,1.31.43,1.46,1.29l3.79,19.75-1.28,2.64.12.12,2.15-.84c2.09-.79,3.69-1.85,4.78-3.2,1.14-1.34,1.94-3.24,2.42-5.7l2.27-10.85h-4.9v-3.22h7.53c.84,0,1.19.38,1.05,1.12l-2.87,12.72Z"/>
          <path class="cls-2" d="M402.32,220.87l-3.23,1.41v-21.16c0-2.24-1.16-3.37-3.49-3.37h-11.68v24.07h-9.98l1.29-3.25h5.44v-19.09l1.91-1.73h-5.08v-3.22h17.18c1.31,0,2.45.14,3.41.42.96.28,1.75.71,2.37,1.31.63.59,1.1,1.36,1.41,2.3.31.94.46,2.07.46,3.39v18.91Z"/>
          <path class="cls-2" d="M433.58,201.79c-1.42,3.32-2.6,5.61-3.56,6.88l-2.87.89c1.79,2.29,4.48,5.57,8.06,9.85l-1.82,2.42h-22.82l2.09-3.25h18.04c-1.67-1.8-3.7-4.37-6.08-7.69-2.38-3.32-5.14-7.41-8.29-12.29-.3-.46-.55-.69-.75-.69h-3.79v-3.37h5.02c.68,0,1.15.27,1.41.8.8,1.67,1.89,3.6,3.29,5.79,1.39,2.19,3.1,4.68,5.11,7.48l.18-.11c1.75-2.84,3.72-7.5,5.91-13.96h3.2c.4,0,.52.13.36.4l-2.69,6.85Z"/>
          <path class="cls-2" d="M452.17,220.87l-3.25,1.41v-23.92c0-.4-.16-.61-.48-.61h-4.84v-3.22h5.88c1.79,0,2.69,1.05,2.69,3.16v23.17Z"/>
          <path class="cls-2" d="M485.1,219.18l-1.29,2.65h-23.24l1.7-3.25h16.1v-17.96c0-1.9-.98-2.85-2.93-2.85h-12.67v-3.22h12.73c4.12,0,6.18,1.96,6.18,5.9v16.84l-1.61,1.12v.17l4.84.26.18.35Z"/>
          <path class="cls-2" d="M514.12,211.15c-1.22,5.11-3.77,8.37-7.65,9.79l-3.08,1.12-1.22-2.88,3.67-1.41c1.49-.61,2.62-1.46,3.38-2.54.66-1.02,1.22-2.49,1.7-4.43l3.2-13.04h-21.36v-3.22h24.47c.58,0,.81.25.69.75l-3.79,15.86ZM497.3,230.2l-3.32,1.36v-27.46h3.32v26.11Z"/>
        </g>
      </g>
    </g>
  </g>
</svg>